<svg width="30" height="27" viewBox="0 0 30 27" fill="none" xmlns="http://www.w3.org/2000/svg">
<path d="M16.175 24.5381H13.8125C13.2555 24.5381 12.7214 24.3407 12.3276 23.9893C11.9338 23.6379 11.7125 23.1613 11.7125 22.6643V21.4486C11.7057 21.3769 11.6763 21.3085 11.6276 21.2512C11.5789 21.194 11.513 21.1502 11.4375 21.1251C11.361 21.0814 11.2721 21.0581 11.1813 21.0581C11.0904 21.0581 11.0015 21.0814 10.925 21.1251L10 22.0174C9.80597 22.1918 9.5752 22.3301 9.32098 22.4246C9.06676 22.519 8.79412 22.5676 8.51875 22.5676C8.24338 22.5676 7.97074 22.519 7.71652 22.4246C7.4623 22.3301 7.23153 22.1918 7.0375 22.0174L5.325 20.5228C5.12677 20.35 4.96934 20.1436 4.862 19.9156C4.75466 19.6876 4.69957 19.4428 4.7 19.1955C4.7008 18.6897 4.92543 18.2047 5.325 17.8459L6.25 17.0206C6.29466 16.9591 6.31842 16.8874 6.31842 16.8142C6.31842 16.741 6.29466 16.6693 6.25 16.6079C6.175 16.4406 6.05 16.3179 5.875 16.3179H4.6C4.0419 16.3149 3.50778 16.115 3.11431 15.7618C2.72084 15.4087 2.49999 14.9309 2.5 14.4329V12.3248C2.5 11.8279 2.72125 11.3513 3.11508 10.9999C3.5089 10.6484 4.04305 10.451 4.6 10.451H5.9625C6.04277 10.445 6.11947 10.4187 6.18365 10.3753C6.24783 10.3318 6.29685 10.273 6.325 10.2056C6.374 10.1374 6.40005 10.058 6.40005 9.97699C6.40005 9.89594 6.374 9.81659 6.325 9.74834L5.325 8.92297C5.12961 8.74984 4.97453 8.54392 4.86871 8.31708C4.76288 8.09024 4.7084 7.84697 4.7084 7.60126C4.7084 7.35555 4.76288 7.11227 4.86871 6.88543C4.97453 6.65859 5.12961 6.45268 5.325 6.27955L7 4.75149C7.19175 4.57545 7.42103 4.43542 7.67434 4.33965C7.92766 4.24387 8.19988 4.19428 8.475 4.1938C8.75781 4.1927 9.03808 4.24139 9.29977 4.33708C9.56145 4.43278 9.79941 4.5736 10 4.75149L10.925 5.57686C10.9939 5.61671 11.0742 5.63791 11.1563 5.63791C11.2383 5.63791 11.3186 5.61671 11.3875 5.57686C11.575 5.50994 11.7125 5.3984 11.7125 5.24225V4.10458C11.7158 3.60658 11.9398 3.12999 12.3356 2.7789C12.7315 2.42781 13.2669 2.23075 13.825 2.23075H16.25C16.807 2.23075 17.3411 2.42817 17.7349 2.77958C18.1288 3.13099 18.35 3.60761 18.35 4.10458V5.32033C18.3568 5.39196 18.3862 5.46039 18.4349 5.51766C18.4836 5.57493 18.5495 5.61867 18.625 5.64378C18.7015 5.68751 18.7904 5.71075 18.8813 5.71075C18.9721 5.71075 19.061 5.68751 19.1375 5.64378L20 4.75149C20.194 4.57714 20.4248 4.43877 20.679 4.34434C20.9332 4.24992 21.2059 4.2013 21.4813 4.2013C21.7566 4.2013 22.0293 4.24992 22.2835 4.34434C22.5377 4.43877 22.7685 4.57714 22.9625 4.75149L24.675 6.24608C24.8727 6.41925 25.0297 6.62579 25.137 6.85367C25.2443 7.08155 25.2997 7.3262 25.3 7.57337C25.306 7.82466 25.2536 8.07433 25.146 8.30662C25.0385 8.53892 24.8781 8.74878 24.675 8.92297L23.75 9.74834C23.7053 9.80979 23.6816 9.88145 23.6816 9.95469C23.6816 10.0279 23.7053 10.0996 23.75 10.161C23.825 10.3283 23.95 10.451 24.125 10.451H25.4875C26.0303 10.474 26.5422 10.6827 26.917 11.0337C27.2918 11.3847 27.5006 11.8512 27.5 12.336V14.4998C27.5 14.9968 27.2788 15.4734 26.8849 15.8248C26.4911 16.1762 25.957 16.3736 25.4 16.3736H24.0375C23.9572 16.3797 23.8805 16.406 23.8164 16.4494C23.7522 16.4928 23.7031 16.5517 23.675 16.619C23.6303 16.6805 23.6066 16.7521 23.6066 16.8254C23.6066 16.8986 23.6303 16.9703 23.675 17.0317L24.6375 17.8905C24.8329 18.0637 24.988 18.2696 25.0938 18.4964C25.1996 18.7233 25.2541 18.9665 25.2541 19.2123C25.2541 19.458 25.1996 19.7012 25.0938 19.9281C24.988 20.1549 24.8329 20.3608 24.6375 20.534L23 22.0174C22.8083 22.1934 22.579 22.3335 22.3257 22.4292C22.0723 22.525 21.8001 22.5746 21.525 22.5751C20.9668 22.5685 20.4334 22.3686 20.0375 22.0174L19.075 21.192C19.0061 21.1522 18.9258 21.131 18.8438 21.131C18.7617 21.131 18.6814 21.1522 18.6125 21.192C18.425 21.259 18.2875 21.3705 18.2875 21.5266V22.7424C18.2618 23.2267 18.0279 23.6835 17.6345 24.018C17.2411 24.3524 16.7184 24.5387 16.175 24.5381ZM14.2125 22.3074H15.7875V21.4486C15.7928 20.9342 15.9691 20.4328 16.294 20.0079C16.6188 19.583 17.0777 19.2537 17.6125 19.0617C18.1495 18.8522 18.7442 18.7903 19.3208 18.8836C19.8974 18.977 20.4297 19.2215 20.85 19.5859L21.525 20.1882L22.625 19.2067L21.95 18.5932C21.5442 18.2239 21.2705 17.7553 21.1636 17.2469C21.0568 16.7385 21.1217 16.2133 21.35 15.7379C21.5672 15.2628 21.9371 14.8557 22.4131 14.5679C22.8891 14.2801 23.45 14.1244 24.025 14.1206H25V12.6818H24.0375C23.4611 12.677 22.8992 12.5197 22.423 12.2298C21.9468 11.94 21.5777 11.5305 21.3625 11.0533C21.1278 10.5742 21.0583 10.0435 21.163 9.52905C21.2676 9.01455 21.5416 8.53951 21.95 8.16452L22.625 7.56222L21.525 6.58069L20.8375 7.18299C20.4172 7.52559 19.8959 7.75389 19.335 7.84101C18.7741 7.92812 18.197 7.87043 17.6717 7.67471C17.1463 7.479 16.6946 7.15342 16.3696 6.73631C16.0447 6.31919 15.86 5.82792 15.8375 5.32033V4.46149H14.2125V5.32033C14.2072 5.83468 14.0309 6.33605 13.706 6.76095C13.3812 7.18586 12.9223 7.51518 12.3875 7.70722C11.8505 7.91665 11.2558 7.97864 10.6792 7.88527C10.1026 7.79191 9.57026 7.54742 9.15 7.18299L8.475 6.58069L7.375 7.56222L8.05 8.17567C8.43395 8.55074 8.68981 9.0159 8.78744 9.51636C8.88507 10.0168 8.82041 10.5318 8.60107 11.0005C8.38174 11.4693 8.01686 11.8724 7.5494 12.1624C7.08194 12.4523 6.53136 12.617 5.9625 12.6371H5V14.0425H5.9625C6.53893 14.0473 7.10082 14.2045 7.57702 14.4944C8.05321 14.7843 8.42228 15.1938 8.6375 15.671C8.87221 16.1501 8.94168 16.6807 8.83705 17.1952C8.73242 17.7097 8.45842 18.1848 8.05 18.5598L7.375 19.1621L8.475 20.1436L9.1625 19.5413C9.58284 19.1987 10.1041 18.9704 10.665 18.8833C11.2259 18.7962 11.803 18.8539 12.3283 19.0496C12.8537 19.2453 13.3054 19.5709 13.6304 19.988C13.9553 20.4051 14.14 20.8964 14.1625 21.404L14.2125 22.3074Z" fill="#ffffff"/>
<path d="M15 17.2882C14.1347 17.2882 13.2888 17.0592 12.5694 16.6303C11.8499 16.2013 11.2892 15.5916 10.958 14.8783C10.6269 14.165 10.5403 13.3801 10.7091 12.6228C10.8779 11.8655 11.2946 11.17 11.9064 10.624C12.5183 10.078 13.2978 9.70624 14.1465 9.55561C14.9951 9.40499 15.8748 9.48229 16.6742 9.77776C17.4737 10.0732 18.157 10.5736 18.6377 11.2156C19.1184 11.8575 19.375 12.6123 19.375 13.3844C19.375 14.4197 18.9141 15.4127 18.0936 16.1448C17.2731 16.8769 16.1603 17.2882 15 17.2882ZM15 11.7113C14.6292 11.7113 14.2667 11.8095 13.9583 11.9933C13.65 12.1771 13.4096 12.4384 13.2677 12.7441C13.1258 13.0499 13.0887 13.3863 13.161 13.7108C13.2334 14.0353 13.412 14.3334 13.6742 14.5674C13.9364 14.8014 14.2705 14.9607 14.6342 15.0253C14.9979 15.0899 15.3749 15.0567 15.7175 14.9301C16.0601 14.8035 16.353 14.589 16.559 14.3139C16.765 14.0388 16.875 13.7153 16.875 13.3844C16.875 12.9407 16.6775 12.5151 16.3258 12.2014C15.9742 11.8876 15.4973 11.7113 15 11.7113Z" fill="#ffffff"/>
</svg>
